HIERARCHY
ROOT SimulationBone
{
	OFFSET 0.000000 0.000000 0.000000
	CHANNELS 6 Xposition Yposition Zposition Zrotation Yrotation Xrotation 
	JOINT Hips
	{
		OFFSET 0.000000 0.000000 0.000000
		CHANNELS 6 Xposition Yposition Zposition Zrotation Yrotation Xrotation 
		JOINT RightUpLeg
		{
			OFFSET 0.103459 1.857839 10.548500
			CHANNELS 3 Zrotation Yrotation Xrotation
			JOINT RightLeg
			{
				OFFSET 43.500004 -0.000053 -0.000011
				CHANNELS 3 Zrotation Yrotation Xrotation
				JOINT RightFoot
				{
					OFFSET 42.372192 0.000015 -0.000008
					CHANNELS 3 Zrotation Yrotation Xrotation
					JOINT RightToe
					{
						OFFSET 17.300007 0.000002 0.000013
						CHANNELS 3 Zrotation Yrotation Xrotation
						End Site
						{
							OFFSET 0.000000 0.000000 0.000000
						}
					}
				}
			}
		}
		JOINT LeftUpLeg
		{
			OFFSET 0.103460 1.857826 -10.548500
			CHANNELS 3 Zrotation Yrotation Xrotation
			JOINT LeftLeg
			{
				OFFSET 43.500046 -0.000019 0.000011
				CHANNELS 3 Zrotation Yrotation Xrotation
				JOINT LeftFoot
				{
					OFFSET 42.372261 0.000004 0.000012
					CHANNELS 3 Zrotation Yrotation Xrotation
					JOINT LeftToe
					{
						OFFSET 17.299995 -0.000004 0.000006
						CHANNELS 3 Zrotation Yrotation Xrotation
						End Site
						{
							OFFSET 0.000000 0.000000 0.000000
						}
					}
				}
			}
		}
		JOINT Spine
		{
			OFFSET 6.901963 -2.603745 -0.000005
			CHANNELS 3 Zrotation Yrotation Xrotation
			JOINT Spine1
			{
				OFFSET 12.588102 0.000012 0.000012
				CHANNELS 3 Zrotation Yrotation Xrotation
				JOINT Spine2
				{
					OFFSET 12.343202 0.000010 -0.000009
					CHANNELS 3 Zrotation Yrotation Xrotation
					JOINT Neck
					{
						OFFSET 25.832901 -0.000008 0.000006
						CHANNELS 3 Zrotation Yrotation Xrotation
						JOINT Head
						{
							OFFSET 11.766603 0.000007 -0.000001
							CHANNELS 3 Zrotation Yrotation Xrotation
							End Site
							{
								OFFSET 0.000000 0.000000 0.000000
							}
						}
					}
					JOINT RightShoulder
					{
						OFFSET 19.745903 -1.480391 6.000108
						CHANNELS 3 Zrotation Yrotation Xrotation
						JOINT RightArm
						{
							OFFSET 11.284125 -0.000031 -0.000021
							CHANNELS 3 Zrotation Yrotation Xrotation
							JOINT RightForeArm
							{
								OFFSET 33.000046 0.000024 0.000034
								CHANNELS 3 Zrotation Yrotation Xrotation
								JOINT RightHand
								{
									OFFSET 25.200014 0.000020 0.000007
									CHANNELS 3 Zrotation Yrotation Xrotation
									End Site
									{
										OFFSET 0.000000 0.000000 0.000000
									}
								}
							}
						}
					}
					JOINT LeftShoulder
					{
						OFFSET 19.746098 -1.480371 -6.000075
						CHANNELS 3 Zrotation Yrotation Xrotation
						JOINT LeftArm
						{
							OFFSET 11.284128 -0.000021 -0.000009
							CHANNELS 3 Zrotation Yrotation Xrotation
							JOINT LeftForeArm
							{
								OFFSET 33.000095 0.000034 0.000006
								CHANNELS 3 Zrotation Yrotation Xrotation
								JOINT LeftHand
								{
									OFFSET 25.199781 0.000147 0.000427
									CHANNELS 3 Zrotation Yrotation Xrotation
									End Site
									{
										OFFSET 0.000000 0.000000 0.000000
									}
								}
							}
						}
					}
				}
			}
		}
	}
}
MOTION
Frames: 5
Frame Time: 0.033333
-167.318744 0.000000 506.853551 180.000000 32.451937 180.000000 -1.726741 90.029587 0.504377 89.767398 1.147372 -178.629798 147.094599 -5.132293 171.206068 -63.614401 4.046475 -5.123063 74.963307 0.450708 -10.597149 21.454560 0.003110 0.000017 170.501862 -4.400403 -174.444739 -27.377823 -0.201526 2.042140 87.386704 -2.120152 -4.051214 21.454550 -0.003095 -0.000000 6.555360 0.204735 0.519970 3.099678 0.395770 1.045152 2.781627 0.401939 1.042744 11.178341 -5.939403 -8.522548 -11.892427 8.450640 -12.209719 -177.801995 -76.564754 -3.670051 27.227154 58.380851 48.508065 -39.664544 -14.816427 1.464897 10.586262 5.686881 6.508325 -145.675081 80.336494 36.375945 -13.077987 -60.040839 -36.352497 -43.521935 16.608363 -1.659534 10.780571 4.961805 0.192087 
-170.849383 0.000000 504.993336 180.000000 32.673982 180.000000 -1.542377 89.590561 0.448230 89.261769 1.561355 179.535303 145.989734 -5.145097 171.188556 -52.730283 4.222638 -3.431485 75.596807 -0.428435 -9.774967 21.454562 0.003113 0.000019 172.887756 -4.658496 -175.031643 -27.223867 -0.312488 1.244117 89.797986 -1.460945 -3.874216 21.454553 -0.003088 0.000000 6.399437 0.241156 0.818275 2.789374 0.462973 1.642022 2.471412 0.472742 1.639196 10.951941 -6.364983 -8.282650 -11.498161 8.950394 -12.137195 -175.292953 -76.226974 -6.230970 29.867423 57.420389 51.147025 -39.469922 -14.198662 1.419538 11.037356 6.548753 7.109109 -146.808919 80.711198 35.212060 -16.288287 -58.435588 -30.497525 -48.059366 18.301767 -1.908105 9.734875 7.102553 0.458095 
-174.347416 0.000000 503.148651 180.000000 32.940385 180.000000 -1.266995 89.190147 0.359361 89.017345 1.544173 177.729832 147.003880 -5.158800 172.043231 -38.287203 3.477032 -1.925628 74.806943 -1.608039 -10.041250 21.454560 0.003112 0.000019 175.823003 -4.252201 -176.048413 -26.543252 -0.202127 0.567897 92.028992 -0.905526 -3.683912 21.454551 -0.003090 0.000001 6.354811 0.255833 1.088709 2.701474 0.486762 2.182972 2.383588 0.499801 2.179999 10.282538 -7.218492 -8.031300 -11.233676 9.251567 -12.076310 -171.932964 -75.800265 -9.662985 31.387253 57.101314 52.937511 -38.544352 -13.654569 1.360364 10.282857 5.720056 7.439524 -146.925101 81.270666 35.074965 -19.018988 -56.991880 -24.445792 -52.620495 19.437655 -2.134760 8.413128 8.538268 -1.116431 
-177.809926 0.000000 501.310118 180.000000 33.245664 180.000000 -1.018843 88.742310 0.276406 88.683674 1.550149 175.862338 149.342400 -5.008302 173.041722 -22.286470 3.639137 -0.722210 75.593815 -2.877804 -11.808261 21.454558 0.003108 0.000017 178.760339 -3.793600 -177.941249 -25.449980 0.073862 0.382472 93.892944 -0.689180 -3.381991 21.454550 -0.003096 -0.000001 6.304526 0.284994 1.369717 2.602724 0.539849 2.745377 2.284996 0.556277 2.742072 9.691804 -7.758717 -7.701037 -11.288194 9.588846 -11.943741 -169.937005 -75.707757 -11.704986 33.139511 57.513745 54.419375 -37.345548 -13.611820 1.327795 10.143671 5.530545 6.703277 -147.590908 81.671782 34.386984 -21.060084 -55.455709 -19.007272 -56.822854 19.755590 -2.305572 6.389870 10.118528 -2.363636 
-181.229081 0.000000 499.455554 180.000000 33.586755 180.000000 -0.702992 88.151878 0.247566 88.642357 1.689878 174.684651 151.280371 -4.858204 177.231989 -11.442484 3.171733 -2.509235 76.438819 -1.319907 -11.225711 21.454560 0.003112 0.000018 -178.239018 -3.097201 -178.101048 -24.876568 0.207080 -0.520838 95.518399 -0.031126 -3.231985 21.454550 -0.003095 -0.000002 6.314086 0.346004 1.474973 2.623912 0.659268 2.957282 2.306246 0.676967 2.953250 9.331173 -7.762564 -7.373921 -11.206813 9.667136 -11.641925 -168.402931 -75.895395 -13.275047 34.518813 58.197078 54.777683 -36.175940 -13.413890 1.286799 10.648199 6.369919 7.048388 -147.921994 81.940605 34.042967 -22.813370 -54.241845 -14.162537 -60.401337 19.639285 -2.431592 4.852039 11.313443 -2.522788 
